<?xml version="1.0" encoding="UTF-8"?>
<svg xmlns="http://www.w3.org/2000/svg" xmlns:xlink="http://www.w3.org/1999/xlink" viewBox="0 0 88.5 86.15">
  <defs>
    <style>
      .cls-1 {
        fill: url(#_횁책챌청챙첼챠챠청챕_찾챨횪채챔책챠챵_218-9);
      }

      .cls-1, .cls-2, .cls-3, .cls-4, .cls-5, .cls-6, .cls-7, .cls-8, .cls-9, .cls-10, .cls-11 {
        mix-blend-mode: screen;
      }

      .cls-1, .cls-9 {
        opacity: .3;
      }

      .cls-12 {
        fill: url(#_횁책챌청챙첼챠챠청챕_찾챨횪채챔책챠챵_1228-5);
      }

      .cls-12, .cls-2, .cls-13, .cls-3, .cls-14, .cls-15, .cls-16, .cls-17, .cls-18, .cls-4, .cls-5, .cls-6, .cls-7, .cls-8, .cls-19, .cls-11 {
        fill-rule: evenodd;
      }

      .cls-12, .cls-13, .cls-14, .cls-15, .cls-16, .cls-17, .cls-18, .cls-19 {
        mix-blend-mode: color-dodge;
      }

      .cls-2 {
        fill: url(#_횁책챌청챙첼챠챠청챕_찾챨횪채챔책챠챵_1233-7);
      }

      .cls-2, .cls-7 {
        opacity: .7;
      }

      .cls-20 {
        fill: url(#_횁책챌청챙첼챠챠청챕_찾챨횪채챔책챠챵_228-2);
      }

      .cls-21 {
        fill: url(#_횁책챌청챙첼챠챠청챕_찾챨횪채챔책챠챵_188-2);
      }

      .cls-22 {
        fill: url(#_횁책챌청챙첼챠챠청챕_찾챨횪채챔책챠챵_23-4);
      }

      .cls-13 {
        fill: url(#_횁책챌청챙첼챠챠청챕_찾챨횪채챔책챠챵_1228-3);
      }

      .cls-23 {
        fill: url(#_횁책챌청챙첼챠챠청챕_찾챨횪채챔책챠챵_139);
      }

      .cls-3 {
        fill: url(#_횁책챌청챙첼챠챠청챕_찾챨횪채챔책챠챵_1233-4);
      }

      .cls-24 {
        fill: url(#_횁책챌청챙첼챠챠청챕_찾챨횪채챔책챠챵_23-3);
      }

      .cls-14 {
        fill: url(#_횁책챌청챙첼챠챠청챕_찾챨횪채챔책챠챵_1228);
      }

      .cls-25 {
        fill: #fff;
      }

      .cls-26 {
        fill: url(#_횁책챌청챙첼챠챠청챕_찾챨횪채챔책챠챵_23-7);
      }

      .cls-27 {
        fill: url(#_횁책챌청챙첼챠챠청챕_찾챨횪채챔책챠챵_218-8);
      }

      .cls-15 {
        fill: url(#_횁책챌청챙첼챠챠청챕_찾챨횪채챔책챠챵_1228-4);
      }

      .cls-16 {
        fill: url(#_횁책챌청챙첼챠챠청챕_찾챨횪채챔책챠챵_1228-8);
      }

      .cls-17 {
        fill: url(#_횁책챌청챙첼챠챠청챕_찾챨횪채챔책챠챵_1228-2);
      }

      .cls-28 {
        fill: url(#_횁책챌청챙첼챠챠청챕_찾챨횪채챔책챠챵_23-6);
      }

      .cls-29 {
        fill: url(#_횁책챌청챙첼챠챠청챕_찾챨횪채챔책챠챵_23-5);
      }

      .cls-30 {
        fill: url(#_횁책챌청챙첼챠챠청챕_찾챨횪채챔책챠챵_218-6);
      }

      .cls-31 {
        isolation: isolate;
      }

      .cls-18 {
        fill: url(#_횁책챌청챙첼챠챠청챕_찾챨횪채챔책챠챵_1228-7);
      }

      .cls-32 {
        fill: url(#_횁책챌청챙첼챠챠청챕_찾챨횪채챔책챠챵_188-5);
      }

      .cls-33 {
        fill: url(#_횁책챌청챙첼챠챠청챕_찾챨횪채챔책챠챵_23);
      }

      .cls-34 {
        fill: url(#_횁책챌청챙첼챠챠청챕_찾챨횪채챔책챠챵_218-5);
      }

      .cls-35 {
        fill: url(#_횁책챌청챙첼챠챠청챕_찾챨횪채챔책챠챵_218-10);
      }

      .cls-36 {
        fill: url(#_횁책챌청챙첼챠챠청챕_찾챨횪채챔책챠챵_228);
      }

      .cls-37 {
        fill: url(#_횁책챌청챙첼챠챠청챕_찾챨횪채챔책챠챵_228-5);
      }

      .cls-4 {
        fill: url(#_횁책챌청챙첼챠챠청챕_찾챨횪채챔책챠챵_1233-5);
        opacity: .8;
      }

      .cls-5 {
        fill: url(#_횁책챌청챙첼챠챠청챕_찾챨횪채챔책챠챵_1233-6);
      }

      .cls-38 {
        fill: url(#_횁책챌청챙첼챠챠청챕_찾챨횪채챔책챠챵_188-3);
      }

      .cls-6 {
        fill: url(#_횁책챌청챙첼챠챠청챕_찾챨횪채챔책챠챵_1233);
      }

      .cls-39 {
        fill: url(#_횁책챌청챙첼챠챠청챕_찾챨횪채챔책챠챵_218-3);
      }

      .cls-40 {
        fill: #ffffac;
      }

      .cls-41 {
        fill: url(#_횁책챌청챙첼챠챠청챕_찾챨횪채챔책챠챵_188);
      }

      .cls-42 {
        fill: url(#_횁책챌청챙첼챠챠청챕_찾챨횪채챔책챠챵_218-2);
      }

      .cls-7 {
        fill: url(#_횁책챌청챙첼챠챠청챕_찾챨횪채챔책챠챵_1233-2);
      }

      .cls-8 {
        fill: url(#_횁책챌청챙첼챠챠청챕_찾챨횪채챔책챠챵_1233-8);
      }

      .cls-43 {
        fill: url(#_횁책챌청챙첼챠챠청챕_찾챨횪채챔책챠챵_23-2);
      }

      .cls-44 {
        fill: url(#_횁책챌청챙첼챠챠청챕_찾챨횪채챔책챠챵_228-4);
      }

      .cls-45 {
        fill: url(#_횁책챌청챙첼챠챠청챕_찾챨횪채챔책챠챵_218);
      }

      .cls-19 {
        fill: url(#_횁책챌청챙첼챠챠청챕_찾챨횪채챔책챠챵_1228-6);
      }

      .cls-46 {
        fill: url(#_횁책챌청챙첼챠챠청챕_찾챨횪채챔책챠챵_218-4);
      }

      .cls-47 {
        fill: url(#_횁책챌청챙첼챠챠청챕_찾챨횪채챔책챠챵_188-4);
      }

      .cls-48 {
        fill: url(#_횁책챌청챙첼챠챠청챕_찾챨횪채챔책챠챵_67);
      }

      .cls-49 {
        fill: url(#_횁책챌청챙첼챠챠청챕_찾챨횪채챔책챠챵_218-7);
      }

      .cls-10 {
        fill: url(#_횁책챌청챙첼챠챠청챕_찾챨횪채챔책챠챵_1208);
      }

      .cls-50 {
        fill: url(#_횁책챌청챙첼챠챠청챕_찾챨횪채챔책챠챵_228-3);
      }

      .cls-11 {
        fill: url(#_횁책챌청챙첼챠챠청챕_찾챨횪채챔책챠챵_1233-3);
      }
    </style>
    <radialGradient id="_횁책챌청챙첼챠챠청챕_찾챨횪채챔책챠챵_218" data-name="횁책챌청챙첼챠챠청챕 찾챨횪채챔책챠챵 218" cx="44.01" cy="86.37" fx="44.01" fy="86.37" r="40.47" gradientUnits="userSpaceOnUse">
      <stop offset="0" stop-color="#000"/>
      <stop offset=".13" stop-color="#001900"/>
      <stop offset=".4" stop-color="#005b03"/>
      <stop offset=".78" stop-color="#00c206"/>
      <stop offset="1" stop-color="#00ff09"/>
    </radialGradient>
    <radialGradient id="_횁책챌청챙첼챠챠청챕_찾챨횪채챔책챠챵_218-2" data-name="횁책챌청챙첼챠챠청챕 찾챨횪채챔책챠챵 218" cx="33.06" cy="85.43" fx="33.06" fy="85.43" r="50.94" xlink:href="#_횁책챌청챙첼챠챠청챕_찾챨횪채챔책챠챵_218"/>
    <radialGradient id="_횁책챌청챙첼챠챠청챕_찾챨횪채챔책챠챵_218-3" data-name="횁책챌청챙첼챠챠청챕 찾챨횪채챔책챠챵 218" cx="44.01" cy="86.37" fx="44.01" fy="86.37" r="40.47" xlink:href="#_횁책챌청챙첼챠챠청챕_찾챨횪채챔책챠챵_218"/>
    <radialGradient id="_횁책챌청챙첼챠챠청챕_찾챨횪채챔책챠챵_218-4" data-name="횁책챌청챙첼챠챠청챕 찾챨횪채챔책챠챵 218" cx="44.01" cy="86.37" fx="44.01" fy="86.37" r="40.47" xlink:href="#_횁책챌청챙첼챠챠청챕_찾챨횪채챔책챠챵_218"/>
    <radialGradient id="_횁책챌청챙첼챠챠청챕_찾챨횪채챔책챠챵_218-5" data-name="횁책챌청챙첼챠챠청챕 찾챨횪채챔책챠챵 218" cx="44.01" cy="86.37" fx="44.01" fy="86.37" r="40.47" xlink:href="#_횁책챌청챙첼챠챠청챕_찾챨횪채챔책챠챵_218"/>
    <radialGradient id="_횁책챌청챙첼챠챠청챕_찾챨횪채챔책챠챵_218-6" data-name="횁책챌청챙첼챠챠청챕 찾챨횪채챔책챠챵 218" cx="44.01" cy="86.37" fx="44.01" fy="86.37" r="40.47" xlink:href="#_횁책챌청챙첼챠챠청챕_찾챨횪채챔책챠챵_218"/>
    <radialGradient id="_횁책챌청챙첼챠챠청챕_찾챨횪채챔책챠챵_218-7" data-name="횁책챌청챙첼챠챠청챕 찾챨횪채챔책챠챵 218" cx="44.01" cy="86.37" fx="44.01" fy="86.37" r="40.47" xlink:href="#_횁책챌청챙첼챠챠청챕_찾챨횪채챔책챠챵_218"/>
    <radialGradient id="_횁책챌청챙첼챠챠청챕_찾챨횪채챔책챠챵_218-8" data-name="횁책챌청챙첼챠챠청챕 찾챨횪채챔책챠챵 218" cx="44.01" cy="86.37" fx="44.01" fy="86.37" r="40.47" xlink:href="#_횁책챌청챙첼챠챠청챕_찾챨횪채챔책챠챵_218"/>
    <radialGradient id="_횁책챌청챙첼챠챠청챕_찾챨횪채챔책챠챵_218-9" data-name="횁책챌청챙첼챠챠청챕 찾챨횪채챔책챠챵 218" cx="44.02" cy="86.37" fx="44.02" fy="86.37" r="40.47" xlink:href="#_횁책챌청챙첼챠챠청챕_찾챨횪채챔책챠챵_218"/>
    <radialGradient id="_횁책챌청챙첼챠챠청챕_찾챨횪채챔책챠챵_218-10" data-name="횁책챌청챙첼챠챠청챕 찾챨횪채챔책챠챵 218" cx="40.97" cy="86.25" fx="40.97" fy="86.25" r="45.47" xlink:href="#_횁책챌청챙첼챠챠청챕_찾챨횪채챔책챠챵_218"/>
    <linearGradient id="_횁책챌청챙첼챠챠청챕_찾챨횪채챔책챠챵_188" data-name="횁책챌청챙첼챠챠청챕 찾챨횪채챔책챠챵 188" x1="46.89" y1="35" x2="46.89" y2="78.5" gradientUnits="userSpaceOnUse">
      <stop offset="0" stop-color="#00936f"/>
      <stop offset=".99" stop-color="#3fff00"/>
    </linearGradient>
    <linearGradient id="_횁책챌청챙첼챠챠청챕_찾챨횪채챔책챠챵_139" data-name="횁책챌청챙첼챠챠청챕 찾챨횪채챔책챠챵 139" x1="32.93" y1="35" x2="32.93" y2="78.5" gradientUnits="userSpaceOnUse">
      <stop offset="0" stop-color="#00936f"/>
      <stop offset="1" stop-color="#3fff00"/>
    </linearGradient>
    <linearGradient id="_횁책챌청챙첼챠챠청챕_찾챨횪채챔책챠챵_188-2" data-name="횁책챌청챙첼챠챠청챕 찾챨횪채챔책챠챵 188" x1="52.68" y1="35" x2="52.68" y2="78.5" xlink:href="#_횁책챌청챙첼챠챠청챕_찾챨횪채챔책챠챵_188"/>
    <linearGradient id="_횁책챌청챙첼챠챠청챕_찾챨횪채챔책챠챵_188-3" data-name="횁책챌청챙첼챠챠청챕 찾챨횪채챔책챠챵 188" x1="53.34" y1="35" x2="53.34" y2="78.5" xlink:href="#_횁책챌청챙첼챠챠청챕_찾챨횪채챔책챠챵_188"/>
    <linearGradient id="_횁책챌청챙첼챠챠청챕_찾챨횪채챔책챠챵_188-4" data-name="횁책챌청챙첼챠챠청챕 찾챨횪채챔책챠챵 188" x1="30.08" y1="35" x2="30.08" y2="78.5" xlink:href="#_횁책챌청챙첼챠챠청챕_찾챨횪채챔책챠챵_188"/>
    <linearGradient id="_횁책챌청챙첼챠챠청챕_찾챨횪채챔책챠챵_188-5" data-name="횁책챌청챙첼챠챠청챕 찾챨횪채챔책챠챵 188" x1="59.37" y1="35" x2="59.37" y2="78.5" xlink:href="#_횁책챌청챙첼챠챠청챕_찾챨횪채챔책챠챵_188"/>
    <linearGradient id="_횁책챌청챙첼챠챠청챕_찾챨횪채챔책챠챵_228" data-name="횁책챌청챙첼챠챠청챕 찾챨횪채챔책챠챵 228" x1="30.08" y1="35" x2="30.08" y2="78.5" gradientUnits="userSpaceOnUse">
      <stop offset="0" stop-color="#000"/>
      <stop offset=".13" stop-color="#001900"/>
      <stop offset=".4" stop-color="#005b03"/>
      <stop offset=".78" stop-color="#00c206"/>
      <stop offset="1" stop-color="#00ff09"/>
    </linearGradient>
    <linearGradient id="_횁책챌청챙첼챠챠청챕_찾챨횪채챔책챠챵_23" data-name="횁책챌청챙첼챠챠청챕 찾챨횪채챔책챠챵 23" x1="45.7" y1="89.98" x2="45.7" y2="43.16" gradientUnits="userSpaceOnUse">
      <stop offset="0" stop-color="#ffffac"/>
      <stop offset=".99" stop-color="#aeff00"/>
    </linearGradient>
    <linearGradient id="_횁책챌청챙첼챠챠청챕_찾챨횪채챔책챠챵_23-2" data-name="횁책챌청챙첼챠챠청챕 찾챨횪채챔책챠챵 23" x1="52.67" y1="89.98" x2="52.67" y2="43.16" xlink:href="#_횁책챌청챙첼챠챠청챕_찾챨횪채챔책챠챵_23"/>
    <linearGradient id="_횁책챌청챙첼챠챠청챕_찾챨횪채챔책챠챵_23-3" data-name="횁책챌청챙첼챠챠청챕 찾챨횪채챔책챠챵 23" x1="46.38" y1="89.98" x2="46.38" y2="43.16" xlink:href="#_횁책챌청챙첼챠챠청챕_찾챨횪채챔책챠챵_23"/>
    <linearGradient id="_횁책챌청챙첼챠챠청챕_찾챨횪채챔책챠챵_23-4" data-name="횁책챌청챙첼챠챠청챕 찾챨횪채챔책챠챵 23" x1="35.58" y1="89.98" x2="35.58" y2="43.16" xlink:href="#_횁책챌청챙첼챠챠청챕_찾챨횪채챔책챠챵_23"/>
    <linearGradient id="_횁책챌청챙첼챠챠청챕_찾챨횪채챔책챠챵_23-5" data-name="횁책챌청챙첼챠챠청챕 찾챨횪채챔책챠챵 23" x1="62.76" y1="89.98" x2="62.76" y2="43.16" xlink:href="#_횁책챌청챙첼챠챠청챕_찾챨횪채챔책챠챵_23"/>
    <linearGradient id="_횁책챌청챙첼챠챠청챕_찾챨횪채챔책챠챵_23-6" data-name="횁책챌청챙첼챠챠청챕 찾챨횪채챔책챠챵 23" x1="55.08" y1="89.98" x2="55.08" y2="43.16" xlink:href="#_횁책챌청챙첼챠챠청챕_찾챨횪채챔책챠챵_23"/>
    <linearGradient id="_횁책챌청챙첼챠챠청챕_찾챨횪채챔책챠챵_23-7" data-name="횁책챌청챙첼챠챠청챕 찾챨횪채챔책챠챵 23" x1="39.7" y1="89.98" x2="39.7" y2="43.16" xlink:href="#_횁책챌청챙첼챠챠청챕_찾챨횪채챔책챠챵_23"/>
    <radialGradient id="_횁책챌청챙첼챠챠청챕_찾챨횪채챔책챠챵_1228" data-name="횁책챌청챙첼챠챠청챕 찾챨횪채챔책챠챵 1228" cx="117.25" cy="-265.35" fx="117.25" fy="-265.35" r="2.14" gradientTransform="translate(-654.93 -1157.3) rotate(83.01) scale(11.05 2.04)" gradientUnits="userSpaceOnUse">
      <stop offset="0" stop-color="#3fff00"/>
      <stop offset=".16" stop-color="#34d500"/>
      <stop offset="1" stop-color="#000"/>
    </radialGradient>
    <radialGradient id="_횁책챌청챙첼챠챠청챕_찾챨횪채챔책챠챵_1233" data-name="횁책챌청챙첼챠챠청챕 찾챨횪채챔책챠챵 1233" cx="118.28" cy="27.89" fx="118.28" fy="27.89" r=".88" gradientTransform="translate(-93.44 -1226.69) rotate(83.01) scale(11.05 .88)" gradientUnits="userSpaceOnUse">
      <stop offset=".57" stop-color="#3fff00"/>
      <stop offset=".62" stop-color="#32cb00"/>
      <stop offset=".67" stop-color="#259500"/>
      <stop offset=".73" stop-color="#196800"/>
      <stop offset=".78" stop-color="#104200"/>
      <stop offset=".84" stop-color="#092500"/>
      <stop offset=".89" stop-color="#041000"/>
      <stop offset=".95" stop-color="#010400"/>
      <stop offset="1" stop-color="#000"/>
    </radialGradient>
    <radialGradient id="_횁책챌청챙첼챠챠청챕_찾챨횪채챔책챠챵_1228-2" data-name="횁책챌청챙첼챠챠청챕 찾챨횪채챔책챠챵 1228" cx="109.41" cy="-378.52" fx="109.41" fy="-378.52" r="2.14" gradientTransform="translate(73.2 -1260.08) rotate(108.37) scale(11.16 1.06)" xlink:href="#_횁책챌청챙첼챠챠청챕_찾챨횪채챔책챠챵_1228"/>
    <radialGradient id="_횁책챌청챙첼챠챠청챕_찾챨횪채챔책챠챵_1233-2" data-name="횁책챌청챙첼챠챠청챕 찾챨횪채챔책챠챵 1233" cx="110.42" cy="-235.33" fx="110.42" fy="-235.33" r=".88" gradientTransform="translate(352.21 -1167.67) rotate(108.37) scale(11.16 .45)" xlink:href="#_횁책챌청챙첼챠챠청챕_찾챨횪채챔책챠챵_1233"/>
    <radialGradient id="_횁책챌청챙첼챠챠청챕_찾챨횪채챔책챠챵_1228-3" data-name="횁책챌청챙첼챠챠청챕 찾챨횪채챔책챠챵 1228" cx="107.21" cy="-352.68" fx="107.21" fy="-352.68" r="2.14" gradientTransform="translate(-93.72 -1894.69) rotate(92.64) scale(17.99 .67)" xlink:href="#_횁책챌청챙첼챠챠청챕_찾챨횪채챔책챠챵_1228"/>
    <radialGradient id="_횁책챌청챙첼챠챠청챕_찾챨횪채챔책챠챵_1233-3" data-name="횁책챌청챙첼챠챠청챕 찾챨횪채챔책챠챵 1233" cx="108.19" cy="-176.18" fx="108.19" fy="-176.18" r=".88" gradientTransform="translate(90.56 -1886.02) rotate(92.64) scale(17.99 .29)" xlink:href="#_횁책챌청챙첼챠챠청챕_찾챨횪채챔책챠챵_1233"/>
    <radialGradient id="_횁책챌청챙첼챠챠청챕_찾챨횪채챔책챠챵_1228-4" data-name="횁책챌청챙첼챠챠청챕 찾챨횪채챔책챠챵 1228" cx="110.09" cy="-422.02" fx="110.09" fy="-422.02" r="2.14" gradientTransform="translate(307.9 -1223.23) rotate(120.71) scale(11.16 1.06)" xlink:href="#_횁책챌청챙첼챠챠청챕_찾챨횪채챔책챠챵_1228"/>
    <radialGradient id="_횁책챌청챙첼챠챠청챕_찾챨횪채챔책챠챵_1233-4" data-name="횁책챌청챙첼챠챠청챕 찾챨횪채챔책챠챵 1233" cx="111.06" cy="-337.25" fx="111.06" fy="-337.25" r=".88" gradientTransform="translate(560.25 -1073.09) rotate(120.71) scale(11.16 .45)" xlink:href="#_횁책챌청챙첼챠챠청챕_찾챨횪채챔책챠챵_1233"/>
    <radialGradient id="_횁책챌청챙첼챠챠청챕_찾챨횪채챔책챠챵_1228-5" data-name="횁책챌청챙첼챠챠청챕 찾챨횪채챔책챠챵 1228" cx="114.37" cy="-207.02" fx="114.37" fy="-207.02" r="2.14" gradientTransform="translate(-1060.22 -718.09) rotate(54.16) scale(11.05 2.04)" xlink:href="#_횁책챌청챙첼챠챠청챕_찾챨횪채챔책챠챵_1228"/>
    <radialGradient id="_횁책챌청챙첼챠챠청챕_찾챨횪채챔책챠챵_1233-5" data-name="횁책챌청챙첼챠챠청챕 찾챨횪채챔책챠챵 1233" cx="115.36" cy="163.01" fx="115.36" fy="163.01" r=".88" gradientTransform="translate(-602.14 -1048.96) rotate(54.16) scale(11.05 .88)" xlink:href="#_횁책챌청챙첼챠챠청챕_찾챨횪채챔책챠챵_1233"/>
    <radialGradient id="_횁책챌청챙첼챠챠청챕_찾챨횪채챔책챠챵_1228-6" data-name="횁책챌청챙첼챠챠청챕 찾챨횪채챔책챠챵 1228" cx="125.53" cy="-186.52" fx="125.53" fy="-186.52" r="2.14" gradientTransform="translate(-809.53 -192.94) rotate(43.48) scale(6.31 2.04)" xlink:href="#_횁책챌청챙첼챠챠청챕_찾챨횪채챔책챠챵_1228"/>
    <radialGradient id="_횁책챌청챙첼챠챠청챕_찾챨횪채챔책챠챵_1233-6" data-name="횁책챌청챙첼챠챠청챕 찾챨횪채챔책챠챵 1233" cx="126.54" cy="211.24" fx="126.54" fy="211.24" r=".88" gradientTransform="translate(-420.55 -603.4) rotate(43.48) scale(6.31 .88)" xlink:href="#_횁책챌청챙첼챠챠청챕_찾챨횪채챔책챠챵_1233"/>
    <radialGradient id="_횁책챌청챙첼챠챠청챕_찾챨횪채챔책챠챵_1228-7" data-name="횁책챌청챙첼챠챠청챕 찾챨횪채챔책챠챵 1228" cx="107.91" cy="-294.33" fx="107.91" fy="-294.33" r="2.14" gradientTransform="translate(-308.18 -1513.29) rotate(88.57) scale(14.38 1.06)" xlink:href="#_횁책챌청챙첼챠챠청챕_찾챨횪채챔책챠챵_1228"/>
    <radialGradient id="_횁책챌청챙첼챠챠청챕_찾챨횪채챔책챠챵_1233-7" data-name="횁책챌청챙첼챠챠청챕 찾챨횪채챔책챠챵 1233" cx="108.92" cy="-41.33" fx="108.92" fy="-41.33" r=".88" gradientTransform="translate(-15.33 -1520.79) rotate(88.57) scale(14.38 .45)" xlink:href="#_횁책챌청챙첼챠챠청챕_찾챨횪채챔책챠챵_1233"/>
    <radialGradient id="_횁책챌청챙첼챠챠청챕_찾챨횪채챔책챠챵_1228-8" data-name="횁책챌청챙첼챠챠청챕 찾챨횪채챔책챠챵 1228" cx="109.53" cy="-223.64" fx="109.53" fy="-223.64" r="2.14" gradientTransform="translate(-603.49 -1152.15) rotate(72.2) scale(12.1 1.06)" xlink:href="#_횁책챌청챙첼챠챠청챕_찾챨횪채챔책챠챵_1228"/>
    <radialGradient id="_횁책챌청챙첼챠챠청챕_찾챨횪채챔책챠챵_1233-8" data-name="횁책챌청챙첼챠챠청챕 찾챨횪채챔책챠챵 1233" cx="110.51" cy="126.15" fx="110.51" fy="126.15" r=".88" gradientTransform="translate(-323.33 -1242.09) rotate(72.2) scale(12.1 .45)" xlink:href="#_횁책챌청챙첼챠챠청챕_찾챨횪채챔책챠챵_1233"/>
    <radialGradient id="_횁책챌청챙첼챠챠청챕_찾챨횪채챔책챠챵_1208" data-name="횁책챌청챙첼챠챠청챕 찾챨횪채챔책챠챵 1208" cx="45.24" cy="84.44" fx="45.24" fy="84.44" r="13.12" gradientUnits="userSpaceOnUse">
      <stop offset="0" stop-color="lime"/>
      <stop offset=".1" stop-color="#00db00"/>
      <stop offset=".29" stop-color="#090"/>
      <stop offset=".47" stop-color="#006200"/>
      <stop offset=".63" stop-color="#003800"/>
      <stop offset=".78" stop-color="#001900"/>
      <stop offset=".91" stop-color="#000600"/>
      <stop offset="1" stop-color="#000"/>
    </radialGradient>
    <radialGradient id="_횁책챌청챙첼챠챠청챕_찾챨횪채챔책챠챵_67" data-name="횁책챌청챙첼챠챠청챕 찾챨횪채챔책챠챵 67" cx="44.63" cy="173015.25" fx="44.63" fy="173015.25" r="32.8" gradientTransform="translate(0 -8261.47) scale(1 .05)" gradientUnits="userSpaceOnUse">
      <stop offset="0" stop-color="#331048"/>
      <stop offset=".28" stop-color="#300e44"/>
      <stop offset=".56" stop-color="#280b38"/>
      <stop offset=".83" stop-color="#1b0424"/>
      <stop offset="1" stop-color="#110015"/>
    </radialGradient>
    <linearGradient id="_횁책챌청챙첼챠챠청챕_찾챨횪채챔책챠챵_228-2" data-name="횁책챌청챙첼챠챠청챕 찾챨횪채챔책챠챵 228" x1="21.84" y1="93.21" x2="25.48" y2="86.46" xlink:href="#_횁책챌청챙첼챠챠청챕_찾챨횪채챔책챠챵_228"/>
    <linearGradient id="_횁책챌청챙첼챠챠청챕_찾챨횪채챔책챠챵_228-3" data-name="횁책챌청챙첼챠챠청챕 찾챨횪채챔책챠챵 228" x1="37.89" y1="87.44" x2="39.08" y2="85.22" xlink:href="#_횁책챌청챙첼챠챠청챕_찾챨횪채챔책챠챵_228"/>
    <linearGradient id="_횁책챌청챙첼챠챠청챕_찾챨횪채챔책챠챵_228-4" data-name="횁책챌청챙첼챠챠청챕 찾챨횪채챔책챠챵 228" x1="48.2" y1="90.17" x2="51.1" y2="84.81" xlink:href="#_횁책챌청챙첼챠챠청챕_찾챨횪채챔책챠챵_228"/>
    <linearGradient id="_횁책챌청챙첼챠챠청챕_찾챨횪채챔책챠챵_228-5" data-name="횁책챌청챙첼챠챠청챕 찾챨횪채챔책챠챵 228" x1="60.76" y1="92.82" x2="64.5" y2="85.89" xlink:href="#_횁책챌청챙첼챠챠청챕_찾챨횪채챔책챠챵_228"/>
  </defs>
  <g class="cls-31">
    <g id="Layer_2">
      <g id="_x30_">
        <g>
          <g class="cls-9">
            <path class="cls-45" d="M75.76,73.37c-3.14-1.85-15.38,6.93-13.98,5.32,1.78-2.06,8.38-7.18,7.84-8.62-.54-1.44-11.87,9.72-13.41,9.33-1.62-.41,8.41-18.03,6.62-18.99-1.79-.96-14.21,20.09-18.38,19.19-4.17-.9-1.39-26.54-5.09-26.54-3.71,0,2.34,23.93.33,24.18-2,.26-8.31-19.95-10.4-18.45-2.09,1.5,6.62,19.35,4.4,19.01-4.34-.66-7.3-8.89-9.79-7.07-1.52,1.11.77,5.38,2.04,8.62.64,1.63,2.13,4.79,1.46,5.19-.66.4-3.06-2.17-4.61-3.41-3.55-2.85-8.9-7.5-9.46-6.65-.79,1.2,4.71,5.31,8.46,8.31,1.89,1.51,3.31,3.16,3.31,3.16h37.72s.76-1.71,4.23-4.92c3.95-3.65,9.9-6.95,8.71-7.65ZM26.7,85.52c-.26.29-2.04-.75-4.11-2.36-2.08-1.61-3.14-3.01-2.89-3.28.28-.31.82-.22,2.39.95s4.89,4.39,4.62,4.69ZM39.69,67.01c-.45-2.78-1.61-9.33-.12-9.49,1.49-.16,1.49,4.34,1.85,8.99.13,1.73-.16,5.08-.45,5.38-.42.43-.95-2.9-1.27-4.88ZM25.58,72.92c.88-1.22,5.77,3.25,6.17,5.77.4,2.51-4.39-1.72-4.94-2.16-.55-.44-2.11-2.38-1.23-3.61ZM34.14,84.98c-.39,1.19-4.05-.03-6-1.55s-1.82-5.71-.14-5.01c1.69.7,6.53,5.37,6.14,6.56ZM36.5,81.71c-1.67-2.44-5.77-17.13-4.73-17.35,1.04-.22,5.4,9.93,7.7,14.91,2.3,4.98-1.3,4.88-2.97,2.44ZM42.35,83.91c-.41,0-2.25-2.38-2.14-5.57.11-3.19,1.12-6.6,1.52-6.71.37-.1,1,12.29.61,12.29ZM47.27,82.22c-1.59,1.08-2.47-.69-1.1-2.38,1.37-1.69,3.2-3.44,3.8-3.24.61.2-1.11,4.54-2.7,5.62ZM49.69,81.21c-1.07-.47-.13-2.67,2.47-7.36.43-.77,7.21-9.87,8.24-9.49.79.29-4.87,10.34-8.19,14.76-.99,1.32-2.11,2.27-2.52,2.09ZM52.55,81.14c-1.01-.55.26-2.51,1.6-4.38,1.16-1.63,2.3-3.26,2.87-3.13.61.14-.4,2.36-1.43,4.33-1.03,1.97-2.09,3.7-3.03,3.19ZM57.34,79.39c3.68-2.62,6.62-5.54,7.25-5.22s-3.47,3.5-5.49,5.51c-2.94,2.93-5.44,2.32-1.75-.29ZM62.3,78.92c.35-.22,5.8-3.17,6.01-2.84.22.34-9.15,6.89-9.44,6.62-.3-.27,2.19-3,3.43-3.78ZM62.48,81.11c6.18-5.06,9.45-7.62,10.9-6.75s-17.08,11.81-10.9,6.75Z"/>
            <g>
              <path class="cls-42" d="M77.28,72.26c-.35.06-2.68.47-1.37-.42,1.2-.81,6.2-3.24,6.45-2.78.44.84-4.73,3.14-5.08,3.2Z"/>
              <path class="cls-39" d="M81.03,55.6c-.66-.9-2.33-3.13-5.79-4.14-2.79-.81-6.02.23-7.36,1.76s-1.84,2.77-2,4.06c-.39,3.3,2.66,4.42,2.6,7.88-.06,3.45-2.18,4.29-4.78,6.18-.45.33-.91.61-1.34.86-1.21.7-4.14,3.67-3.72,3.48.64-.29,2.71-2.46,3.95-3.25,2-1.27,4.34-3.06,5.58-4.98v.02s0-.03.03-.07c.17-.26.31-.52.43-.78.64-1.2,1.68-3.34,1.51-4.26-.14-.8-2.14-4.37-2.1-7.02.02-1.02.34-1.76.87-2.42,1.49-1.86,3.74-1.6,4.98-1.42.8.12,1.58.32,2.16.57.83.35,3,1.29,4.12,3.01.89,1.36.85,3.47.91,4.35.13,2,.94.33.92-.7-.01-.89-.53-2.52-.98-3.14ZM67.77,61.39c-.43-.94-1.49-2.31-1.68-3.16-.47-2.21,1.85-4.72,1.82-4.43,0,.09-.96,1.64-.33,4.27.29,1.2.81,2.56,1.06,3.64.27,1.16.51,2.48.3,2.49-.21,0-.5-1.31-1.18-2.81ZM69.03,60.74c.76,2.46.32,4.04-.03,4.81.02-.1.04-.19.06-.29.37-3.13-1.23-5.88-1.54-8.37-.15-1.2-.04-2.42.73-3.55.05-.07.06-.04,0,.06-.94,1.9-.01,4.78.78,7.34Z"/>
              <path class="cls-46" d="M31.91,58.26c-1.37-2.61-3.77-5.7-6.36-4.55-5.86,2.6-1.97,15.86-6.7,17.03-1.85.46-3.5-.87-4.3-1.38-3.89-2.5-7.59-8.04-9.88-5.97-1.11,1.01-1.52,5.53-1.56,5.66-1.73,6.18-2.89,2.81-3.1,4.2-.22,1.39,2.57,2.82,3.2.3.21-.85.3-1.62.35-2.31.09-1.38-.23-5.33,1.84-5.67,2.07-.34,5.42,4.02,8.36,6.26,1.89,1.44,3.76,2.26,5.43,1.18,2.86-1.85,2.19-7.14,3.57-11.16.68-1.99,1.86-3.69,4.23-4.45,4.02-1.27,6.41,4.17,7.49,7.41-.76-2.41-1.65-4.8-2.57-6.57ZM5.25,65.47c-1.05.28-1.42.99-1.71,1.99.15-1.44.22-3.29,1.7-4.24.83-.54,2.36.36,3.57,1.32,1.71,1.36,3.68,3.57,5.64,4.98.25.18.5.34.74.48.19.11-.88-.24-1.55-.54-4.16-1.86-7.12-4.31-8.39-3.98ZM31.17,57.48c-.72-.37-2.22-3.88-5.03-2.15-2.81,1.73-3.75,6.23-3.89,6.19-.29-.07-.05-4.21,1.73-6.43.99-1.23,3.31-2.73,6.05.56.04.05,1.55,2.04,1.14,1.82Z"/>
              <g>
                <path class="cls-34" d="M85.07,76.19c-2.89.83-1.26,3.7-4.24,3.98-1.58.15-4.12-.4-7.34-1.15-2.08-.49-3.03,0-3.77,1.06-.74,1.07-1.22,2.08-2.41,3.03-1.19.95-1.24.15-1.63.48-.67.56-.93,1.09.27.55,1.9-.85,1.71-1.58,3.3-2.66.8-.55,1.79-1.05,2.95-1.31,3.48-.81,7.7.72,8.81.97s1.66-2.43,2.66-3.57c1-1.14,3.8-.06,3.38-1.16-.19-.49-1.01-.48-1.97-.21Z"/>
                <path class="cls-30" d="M85.89,74.29c-.44-.04.5-.19.5-.19,0,0-.62.05-.86.09-.61.11,2.14.35,1.04.54-1.1.19-1.59.05-3.05.77-1.46.72-1.05,4.26-3.46,4.15s-6.52-2.08-8.84-1.24c-.62.22-1.15.82-1.61,1.42-.11.14-.22.28-.33.42-.27.34-.53.66-.66.9-.14.26-1.09,1.73-.34.73.04-.05,1.49-3.18,3.42-3.44,1.93-.26,2.63.23,4.67.64,1.67.34,2.49.84,4.28.67,1.79-.17,1.68-3.41,2.98-4.18,1.53-.9,3.27-.72,3.72-.95s-.87-.29-1.47-.34Z"/>
                <path class="cls-49" d="M87.82,73.87c-.45.07-1.4.23-1.4.23,0,0,.51-.08,1.46-.12.95-.04.69-.23-.06-.11Z"/>
              </g>
              <g>
                <path class="cls-27" d="M10.89,79.47c-3.99,2.4-3.86,2.14-5.91,1.4-2.05-.75-2.23.43-1.1.69.51.12,1.05.2,1.57.23h-.04s2.44.29,3.97-.63c.85-.51,1.75-.97,2.6-1.21-.68.17-1.53.48-2.67,1.08-1.16.62-2.21.75-2.85.75.28-.03.54-.08.79-.16,1.7-.54,2.1-1.79,5.25-2.15,2.15-.24,4.21,1.01,5.91,2.36-1.01-.56-3.85-2.08-4.51-2.08-.22,0-.48,0-.78.01.26,0,.52.02.76.09,1.29.37,4.9,2.29,4.94,2.32.63.53,1.2,1.05,1.69,1.5.79.71,2.79,1.69,2.63,1.46-3.06-1.13-7.96-8.25-12.27-5.66ZM6.42,81.77s.04,0,.05,0c-.02,0-.04,0-.05,0Z"/>
                <path class="cls-1" d="M13.13,79.76c-.36,0-.74.07-1.13.18.45-.11.82-.16,1.13-.18Z"/>
              </g>
              <path class="cls-35" d="M65.91,75.69c-.49.04.81-.83,2.41-2.24,2.3-2.04,5.46-4.89,6.88-5.19.32,1.24,1.08,1.29,2.35-1.47s3.71-2.47,5.08-2.42c1.37.05-4.16.53-4.91,2.42-.74,1.9-.76,2.74-2.53,2.52-.54-.07.87-1.4-1.74.27-2.61,1.67-6.36,6.01-7.55,6.12Z"/>
            </g>
          </g>
          <g>
            <path class="cls-41" d="M68.86,25.79c-1.91-.63-11.65,37.73-13.55,36.5-1.91-1.24-1.65-11.47-2.27-11.46-.62,0-.83,18.53-2.29,18.57-1.47.05-1-38.58-1.88-38.7-.88-.12-2.25,40.03-3.83,39.82-1.58-.21-1.25-8.34-1.69-23.05-.26-8.69-1.05-29.38-1.34-29.38s-.54,19.41-.54,27.8c.01,15.7,1.63,24.54.27,24.13-1.45-.44-6.44-29.19-6.94-29.27-.5-.08,2.43,22.39,1.53,22.2-1.27-.26-9.15-31.71-11.28-31.63-1.46.05,6.16,15.99,9.43,30.84,1.51,6.88,2.81,21.96,3.51,23.74h14.62c.51-1.1,1.53-13.3,4.94-25.33,4.74-16.7,12.11-34.52,11.3-34.79ZM37.23,72.75c-.39-5.55-.71-16.6-.11-16.62.6-.01,4.26,21.31,4.41,25.67.08,2.36-3.7,1.46-4.3-9.05ZM49.86,81.39c-.15,4.74-2.97,3.42-2.8.42.16-3,.03-26.55,1.15-27.5.71-.6,1.04,7.75,1.3,15.7.15,4.65.41,9.63.35,11.38ZM54.69,68.8c-.17,5-1.82,12.48-2.74,12.04-.92-.44,1.33-17.84,1.89-18.55.56-.71,1.02,1.5.85,6.5Z"/>
            <path class="cls-23" d="M33.89,38.11h.59s-2.06-18.1-2.49-18.16c-.42-.07-.88,4.54-.43,6.4.45,1.86,2.51,11.49,2.33,11.77Z"/>
            <path class="cls-21" d="M52.68,47.24c0,.09-.02.16-.02.16,0-.02.01-.08.02-.16Z"/>
            <path class="cls-38" d="M52.68,47.24c.2-1.88,2.29-21.54,2.04-22-.26-.48-2.28,8.33-2.69,9.08-.39.72.71,11.45.65,12.92Z"/>
            <path class="cls-47" d="M26.33,64.24c-2.76-1.58,4.16,8.91,7.38,11.88,3.22,2.97-4.62-10.3-7.38-11.88Z"/>
            <path class="cls-32" d="M63.59,63.56c-2.44,2.45-8.85,14.88-8.85,14.88,0,0,11.49-17.53,8.85-14.88Z"/>
            <path class="cls-36" d="M31.63,77.18c.14-.04-2.67-3.11-3.07-2.97-.4.14,2.93,3.01,3.07,2.97Z"/>
          </g>
          <g>
            <path class="cls-33" d="M54.69,84.51c-.38-.61,3.72-3.2,3.46-3.56-.26-.36-4.84,3.48-6.72,2.95-1.88-.53.18-9.49-.32-9.59-.5-.1-2.89,9.28-3.15,9.03-.52-.51-.32-16.2-1.36-16.2s-1,15.67-2.01,15.67-2.28-10.68-2.83-10.68,1.4,10.85-.36,11.5c-1.76.65-7.45-7.29-8.3-6.54-.49.43,3.25,5.5,4.36,7.26.8,1.28-4.88-4.17-5.63-3.79-.43.21,2.75,2.94,3.91,4.38-.98-.39-5.84-1.76-5.96-1.43-.12.34,5.69,2.38,5.69,2.38l17.37-.11s9-2.17,8.79-3.11c-.14-.61-6.55,2.45-6.94,1.84Z"/>
            <path class="cls-43" d="M52.29,66.7c-.01.42-.79,4.75-.79,5.14l2.34-7.71s-1.53,2.15-1.55,2.56Z"/>
            <path class="cls-24" d="M47.05,63.43l-.34-11.4-1.01,4.41s.56,9.23.57,9.53l.79-2.54Z"/>
            <path class="cls-22" d="M39.32,80.84l-2.68-7.04-4.81-10.36s2.17,9.37,2.32,9.75c.15.38,5.17,7.65,5.17,7.65Z"/>
            <path class="cls-29" d="M67.34,72.58c-.46-.11-9.19,7.81-9.19,7.81,0,0,3.64-1.57,4.01-1.76s5.64-5.93,5.18-6.04Z"/>
            <polygon class="cls-28" points="53.84 59.89 54.52 52.03 56.32 47.74 55.74 54.77 53.84 59.89"/>
            <path class="cls-26" d="M40.94,69.75s-1.91-7.38-2.01-7.59c-.1-.21-.47-13.26-.47-13.26l1.83,14.16.65,6.69Z"/>
          </g>
          <path class="cls-40" d="M38,85.9s2.21-1.97,3.4-2.26c.53-.13,2.01-.64,3.64-.59,2.06.06,4.32.72,4.83.86.93.26,2.96,1.87,2.96,1.87l-14.84.12Z"/>
          <g>
            <path class="cls-25" d="M51.06,84.51l.44.41s2.76-1.18,2.59-1.34c-.17-.16-3.03.93-3.03.93Z"/>
            <path class="cls-25" d="M49.69,80.39c-.32.16-1.21,3.15-2.11,2.91s-.67-11.28-.89-11.16c-.22.12-1.14,10.83-1.97,10.83s-1.09-.15-1.22-.78c-.13-.63-.91-5.61-1.2-5.63-.29-.02.5,5.21.5,5.68s-.79,1.14-1.27,1.38-1.06.34-1.06.34c0,0-4.89-4.39-5.24-4.39s3.7,5.05,3.7,5.05c.65.22,3.28.33,3.31.32.04-.01,5.64-.76,6.51-.91l1.46.03s-.16-3.83-.53-3.65Z"/>
            <path class="cls-25" d="M53.06,65.68s-.75.9-.76.96c-.01.06-.87,5.27-.86,5.2s1.62-6.16,1.62-6.16Z"/>
            <polygon class="cls-25" points="46.26 65.84 45.83 58.6 46.38 57.52 46.89 62.35 46.26 65.84"/>
            <path class="cls-25" d="M40.94,69.75s-1.56-6.99-1.56-7.08-.12-4.99-.12-4.99l1.05,5.7.62,6.37Z"/>
            <polygon class="cls-25" points="39.26 80.75 35.37 74.51 34.6 69.4 36.56 73.62 39.26 80.75"/>
            <polygon class="cls-25" points="53.84 59.89 54.35 54.05 55.39 51.4 55.08 54.94 53.84 59.89"/>
          </g>
          <path class="cls-25" d="M64.3,75.39c-.35.28-4.53,3.77-4.5,3.91.03.14,2.01-.88,2.01-.88l2.49-3.03Z"/>
          <polygon class="cls-25" points="50.89 84.21 49.76 84.32 50.54 84.64 50.89 84.21"/>
          <g>
            <path class="cls-14" d="M42.98,86.14c-2.39.29-5.62-9.97-7.21-22.93-1.59-12.96-.94-23.7,1.45-23.99,2.39-.29,5.62,9.97,7.21,22.93,1.59,12.96.94,23.7-1.45,23.99Z"/>
            <path class="cls-6" d="M42.62,83.23c-.42.05-1.3-4.25-1.96-9.61-.66-5.36-.85-9.74-.42-9.79.42-.05,1.3,4.25,1.96,9.61.66,5.36.85,9.74.42,9.8Z"/>
          </g>
          <g>
            <g>
              <path class="cls-17" d="M61.23,47.99c-1.19-.39,1.22-10.86,5.38-23.38,4.16-12.52,8.49-22.34,9.68-21.95,1.19.39-1.22,10.86-5.38,23.37-4.16,12.52-8.49,22.34-9.68,21.95Z"/>
              <path class="cls-7" d="M62.16,45.18c-.21-.07,1.01-4.32,2.73-9.5,1.72-5.17,3.28-9.31,3.49-9.24s-1.01,4.32-2.73,9.5c-1.72,5.18-3.28,9.31-3.49,9.24Z"/>
            </g>
            <g>
              <path class="cls-13" d="M50.42,80.75c-.79-.04-.63-17.27.35-38.5.98-21.22,2.41-38.4,3.19-38.36s.63,17.27-.35,38.5c-.98,21.22-2.41,38.4-3.19,38.36Z"/>
              <path class="cls-11" d="M50.64,75.99c-.14,0,.07-7.13.48-15.9.4-8.78.84-15.89.98-15.88.14,0-.07,7.13-.48,15.9-.4,8.78-.84,15.89-.98,15.88Z"/>
            </g>
            <g>
              <path class="cls-15" d="M52.46,82.21c-1.08-.64,3.51-10.35,10.25-21.69,6.73-11.34,13.07-20.01,14.14-19.37,1.08.64-3.51,10.35-10.25,21.69-6.73,11.34-13.07,20.01-14.14,19.37Z"/>
              <path class="cls-3" d="M53.97,79.66c-.19-.11,1.91-4.01,4.7-8.69,2.78-4.69,5.2-8.4,5.39-8.28.19.11-1.91,4.01-4.7,8.69-2.78,4.69-5.2,8.4-5.39,8.28Z"/>
            </g>
            <g>
              <path class="cls-12" d="M35.85,78.3c-1.95,1.41-9.73-6.02-17.38-16.61-7.64-10.58-12.25-20.3-10.3-21.72,1.95-1.41,9.73,6.02,17.38,16.61,7.64,10.58,12.25,20.31,10.3,21.72Z"/>
              <path class="cls-4" d="M34.13,75.92c-.35.25-3.19-3.09-6.35-7.47-3.16-4.38-5.44-8.13-5.09-8.38.35-.25,3.19,3.09,6.35,7.47,3.16,4.38,5.44,8.13,5.09,8.38Z"/>
            </g>
            <g>
              <path class="cls-19" d="M36.51,84.97c-1.66,1.75-7.39-.99-12.79-6.12-5.41-5.13-8.44-10.7-6.79-12.45,1.66-1.75,7.39.99,12.79,6.12,5.41,5.13,8.44,10.7,6.79,12.45Z"/>
              <path class="cls-5" d="M35.29,83.82c-.29.31-2.35-1.16-4.58-3.28-2.24-2.12-3.81-4.09-3.51-4.4.29-.31,2.35,1.16,4.58,3.28,2.24,2.12,3.81,4.09,3.51,4.4Z"/>
            </g>
            <g>
              <path class="cls-18" d="M42.96,61.52c-1.25.03-2.61-13.72-3.03-30.7C39.5,13.83,40.17.03,41.42,0c1.25-.03,2.61,13.72,3.03,30.7.42,16.99-.25,30.79-1.5,30.82Z"/>
              <path class="cls-2" d="M42.86,57.71c-.22,0-.54-5.68-.72-12.71-.18-7.02-.14-12.72.08-12.73.22,0,.54,5.68.72,12.71.18,7.03.14,12.72-.08,12.73Z"/>
            </g>
            <g>
              <path class="cls-16" d="M35.25,62.42c-1.19.38-5.7-10.34-10.07-23.96-4.37-13.62-6.95-24.96-5.76-25.35,1.19-.38,5.7,10.34,10.07,23.96,4.37,13.62,6.95,24.96,5.76,25.35Z"/>
              <path class="cls-8" d="M34.27,59.36c-.21.07-1.85-4.44-3.66-10.07-1.81-5.63-3.1-10.25-2.89-10.32.21-.07,1.85,4.44,3.66,10.07,1.81,5.63,3.1,10.25,2.89,10.32Z"/>
            </g>
          </g>
          <path class="cls-10" d="M58.06,82.63c0-7.06-5.72-12.78-12.78-12.78s-12.78,5.72-12.78,12.78c0,1.14.16,2.24.44,3.3h24.67c.28-1.05.44-2.15.44-3.3Z"/>
          <g>
            <polygon class="cls-48" points="25.56 86.02 18.32 85.16 23.57 82.86 28.82 85.16 33.56 85.74 36.06 83.82 40.21 84.49 42.53 85.85 47.05 84.49 52.05 85.16 55.48 83.26 58.01 84.49 59.22 85.45 63.63 84.16 70.94 84.16 63.87 86.02 25.56 86.02"/>
            <polygon class="cls-20" points="18.54 85.06 23.75 83.35 28.62 85.51 33.56 85.74 28.82 85.16 23.75 82.67 18.54 85.06"/>
            <polygon class="cls-50" points="36.06 83.82 36.06 84.36 40.29 84.71 42.53 85.85 40.29 84.21 36.06 83.82"/>
            <polygon class="cls-44" points="47.05 84.49 52.37 85.43 56.01 83.52 55.31 83.05 52.16 85.05 47.05 84.49"/>
            <polygon class="cls-37" points="59.22 85.45 63.48 83.82 70.94 84.16 63.63 84.16 59.22 85.45"/>
            <polygon class="cls-25" points="20.82 84.04 23.75 82.67 28.82 85.16 33.43 85.74 28.82 85.29 23.78 82.88 20.82 84.04"/>
            <polygon class="cls-25" points="52.15 85.03 55.31 83.05 56.01 83.52 55.33 83.26 52.25 85.23 47.17 84.51 52.15 85.03"/>
          </g>
        </g>
      </g>
    </g>
  </g>
</svg>